<?xml version="1.0" standalone="no"?>
<!DOCTYPE svg PUBLIC "-//W3C//DTD SVG 20010904//EN"
 "http://www.w3.org/TR/2001/REC-SVG-20010904/DTD/svg10.dtd">
<svg version="1.0" xmlns="http://www.w3.org/2000/svg"
 width="500.000000pt" height="500.000000pt" viewBox="0 0 500.000000 500.000000"
 preserveAspectRatio="xMidYMid meet">

<g transform="translate(0.000000,500.000000) scale(0.100000,-0.100000)"
fill="#000000" stroke="none">
<path d="M760 2500 l0 -480 1740 0 1740 0 0 480 0 480 -1740 0 -1740 0 0 -480z
m3450 0 l0 -450 -1715 0 -1715 0 0 450 0 450 1715 0 1715 0 0 -450z"/>
<path d="M850 2500 l0 -390 825 0 825 0 0 390 0 390 -825 0 -825 0 0 -390z
m1007 113 c24 -16 43 -43 43 -62 0 -19 -18 -12 -48 19 -57 57 -153 31 -168
-46 -19 -103 94 -167 168 -94 16 17 36 30 44 30 12 0 12 -4 -1 -30 -41 -80
-188 -81 -230 0 -23 44 -19 111 8 151 38 57 123 72 184 32z m-527 2 c0 -11
-12 -15 -45 -15 l-45 0 0 -115 c0 -96 -3 -115 -15 -115 -12 0 -15 19 -15 115
l0 115 -45 0 c-33 0 -45 4 -45 15 0 12 18 15 105 15 87 0 105 -3 105 -15z
m240 0 c0 -12 -14 -15 -65 -15 l-65 0 0 -40 0 -40 60 0 c47 0 60 -3 60 -15 0
-12 -13 -15 -60 -15 l-60 0 0 -45 0 -45 65 0 c51 0 65 -3 65 -15 0 -12 -16
-15 -80 -15 l-80 0 0 130 0 130 80 0 c64 0 80 -3 80 -15z m460 -40 l0 -55 70
0 70 0 0 55 c0 42 3 55 15 55 13 0 15 -21 15 -130 0 -109 -2 -130 -15 -130
-12 0 -15 13 -15 60 l0 60 -70 0 -70 0 0 -60 c0 -47 -3 -60 -15 -60 -13 0 -15
21 -15 130 0 109 2 130 15 130 12 0 15 -13 15 -55z"/>
<path d="M3280 2632 c-73 -36 -100 -123 -60 -189 28 -46 61 -64 118 -65 92 0
146 52 144 140 -1 100 -109 161 -202 114z m105 -77 c27 -26 31 -46 14 -76 -23
-45 -103 -40 -115 7 -9 36 4 74 29 84 35 14 46 12 72 -15z"/>
<path d="M3583 2629 c-69 -34 -94 -120 -53 -186 28 -47 62 -65 120 -65 77 0
124 40 137 116 l6 36 -77 0 c-74 0 -76 -1 -76 -25 0 -22 4 -25 38 -25 l37 -1
-24 -19 c-28 -24 -49 -25 -79 -4 -28 20 -31 83 -4 107 23 21 65 22 82 2 16
-19 90 -21 90 -2 0 34 -81 87 -132 87 -13 0 -42 -9 -65 -21z"/>
<path d="M3864 2636 c-34 -15 -44 -33 -44 -75 0 -35 26 -59 82 -75 25 -8 44
-20 46 -30 5 -23 -26 -31 -47 -12 -10 9 -32 16 -50 16 -27 0 -32 -3 -29 -21 5
-35 51 -62 103 -61 55 0 92 22 101 59 11 42 -14 74 -76 98 -32 12 -55 27 -55
35 0 21 44 25 51 6 9 -24 74 -22 74 2 0 51 -95 86 -156 58z"/>
<path d="M2730 2510 l0 -130 84 0 c69 0 88 4 110 21 29 23 36 78 12 98 -12 10
-12 16 0 39 19 37 18 49 -11 77 -22 23 -32 25 -110 25 l-85 0 0 -130z m129 71
c23 -15 5 -41 -29 -41 -22 0 -30 5 -30 18 0 32 28 42 59 23z m6 -104 c25 -19
10 -37 -31 -37 -26 0 -34 4 -34 18 0 34 31 43 65 19z"/>
<path d="M3000 2510 l0 -130 90 0 90 0 0 35 0 35 -55 0 -55 0 0 95 0 95 -35 0
-35 0 0 -130z"/>
</g>
</svg>
